<mxfile host="app.diagrams.net" agent="Mozilla/5.0 (Windows NT 10.0; Win64; x64) AppleWebKit/537.36 (KHTML, like Gecko) Chrome/131.0.0.0 Safari/537.36" version="25.0.3">
  <diagram name="第 1 页" id="bflfOLMqazJ2bmTbr9AR">
    <mxGraphModel dx="2074" dy="1132" grid="1" gridSize="10" guides="1" tooltips="1" connect="1" arrows="1" fold="1" page="1" pageScale="1" pageWidth="827" pageHeight="1169" math="0" shadow="0">
      <root>
        <mxCell id="0" />
        <mxCell id="1" parent="0" />
        <mxCell id="SzDOmNU90JvIEvfM5KjJ-1" value="Client" style="rounded=0;whiteSpace=wrap;html=1;" vertex="1" parent="1">
          <mxGeometry x="340" y="200" width="120" height="60" as="geometry" />
        </mxCell>
        <mxCell id="SzDOmNU90JvIEvfM5KjJ-2" value="" style="rounded=0;whiteSpace=wrap;html=1;" vertex="1" parent="1">
          <mxGeometry x="130" y="385" width="560" height="400" as="geometry" />
        </mxCell>
        <mxCell id="SzDOmNU90JvIEvfM5KjJ-3" value="MQ" style="rounded=0;whiteSpace=wrap;html=1;" vertex="1" parent="1">
          <mxGeometry x="294" y="670" width="120" height="60" as="geometry" />
        </mxCell>
        <mxCell id="SzDOmNU90JvIEvfM5KjJ-4" value="" style="rounded=0;whiteSpace=wrap;html=1;" vertex="1" parent="1">
          <mxGeometry x="570" y="200" width="120" height="60" as="geometry" />
        </mxCell>
        <mxCell id="SzDOmNU90JvIEvfM5KjJ-5" value="Client" style="rounded=0;whiteSpace=wrap;html=1;" vertex="1" parent="1">
          <mxGeometry x="130" y="200" width="120" height="60" as="geometry" />
        </mxCell>
        <mxCell id="SzDOmNU90JvIEvfM5KjJ-6" value="存储层" style="text;html=1;align=center;verticalAlign=middle;whiteSpace=wrap;rounded=0;" vertex="1" parent="1">
          <mxGeometry x="50" y="685" width="60" height="30" as="geometry" />
        </mxCell>
        <mxCell id="SzDOmNU90JvIEvfM5KjJ-7" value="应用层" style="text;html=1;align=center;verticalAlign=middle;whiteSpace=wrap;rounded=0;" vertex="1" parent="1">
          <mxGeometry x="50" y="550" width="60" height="30" as="geometry" />
        </mxCell>
        <mxCell id="SzDOmNU90JvIEvfM5KjJ-8" value="接入层" style="text;html=1;align=center;verticalAlign=middle;whiteSpace=wrap;rounded=0;" vertex="1" parent="1">
          <mxGeometry x="50" y="410" width="60" height="30" as="geometry" />
        </mxCell>
        <mxCell id="SzDOmNU90JvIEvfM5KjJ-9" value="rpc server" style="rounded=0;whiteSpace=wrap;html=1;" vertex="1" parent="1">
          <mxGeometry x="230" y="410" width="120" height="60" as="geometry" />
        </mxCell>
        <mxCell id="SzDOmNU90JvIEvfM5KjJ-10" value="rpc server" style="rounded=0;whiteSpace=wrap;html=1;" vertex="1" parent="1">
          <mxGeometry x="410" y="410" width="120" height="60" as="geometry" />
        </mxCell>
        <mxCell id="SzDOmNU90JvIEvfM5KjJ-11" value="消息监听" style="rounded=0;whiteSpace=wrap;html=1;" vertex="1" parent="1">
          <mxGeometry x="290" y="540" width="120" height="60" as="geometry" />
        </mxCell>
        <mxCell id="SzDOmNU90JvIEvfM5KjJ-12" value="消息发送" style="rounded=0;whiteSpace=wrap;html=1;" vertex="1" parent="1">
          <mxGeometry x="430" y="540" width="120" height="60" as="geometry" />
        </mxCell>
        <mxCell id="SzDOmNU90JvIEvfM5KjJ-13" value="认证" style="rounded=0;whiteSpace=wrap;html=1;" vertex="1" parent="1">
          <mxGeometry x="150" y="540" width="120" height="60" as="geometry" />
        </mxCell>
        <mxCell id="SzDOmNU90JvIEvfM5KjJ-14" value="" style="rounded=0;whiteSpace=wrap;html=1;" vertex="1" parent="1">
          <mxGeometry x="130" y="290" width="560" height="80" as="geometry" />
        </mxCell>
        <mxCell id="SzDOmNU90JvIEvfM5KjJ-15" value="通讯" style="text;html=1;align=center;verticalAlign=middle;whiteSpace=wrap;rounded=0;" vertex="1" parent="1">
          <mxGeometry x="40" y="315" width="60" height="30" as="geometry" />
        </mxCell>
        <mxCell id="SzDOmNU90JvIEvfM5KjJ-16" value="http" style="rounded=1;whiteSpace=wrap;html=1;" vertex="1" parent="1">
          <mxGeometry x="190" y="300" width="120" height="60" as="geometry" />
        </mxCell>
        <mxCell id="SzDOmNU90JvIEvfM5KjJ-17" value="tcp" style="rounded=1;whiteSpace=wrap;html=1;" vertex="1" parent="1">
          <mxGeometry x="360" y="300" width="120" height="60" as="geometry" />
        </mxCell>
      </root>
    </mxGraphModel>
  </diagram>
</mxfile>
